<mxfile host="app.diagrams.net" modified="2023-08-31T12:14:19.028Z" agent="Mozilla/5.0 (Windows NT 10.0; Win64; x64) AppleWebKit/537.36 (KHTML, like Gecko) Chrome/116.0.0.0 Safari/537.36" etag="0iIOvJDh_9weIkShFMhT" version="21.7.1" type="device">
  <diagram name="Page-1" id="jZia_-GeKXaTaOidwNgv">
    <mxGraphModel dx="1434" dy="758" grid="1" gridSize="10" guides="1" tooltips="1" connect="1" arrows="1" fold="1" page="1" pageScale="1" pageWidth="1169" pageHeight="827" math="0" shadow="0">
      <root>
        <mxCell id="0" />
        <mxCell id="1" parent="0" />
        <mxCell id="E6OrM8buI4dDUy_tafOZ-3" style="edgeStyle=orthogonalEdgeStyle;rounded=0;orthogonalLoop=1;jettySize=auto;html=1;exitX=0.5;exitY=1;exitDx=0;exitDy=0;entryX=0.5;entryY=0;entryDx=0;entryDy=0;endArrow=none;endFill=0;" parent="1" source="E6OrM8buI4dDUy_tafOZ-1" target="E6OrM8buI4dDUy_tafOZ-2" edge="1">
          <mxGeometry relative="1" as="geometry" />
        </mxCell>
        <mxCell id="E6OrM8buI4dDUy_tafOZ-1" value="UNIVERSITATE" style="rounded=0;whiteSpace=wrap;html=1;" parent="1" vertex="1">
          <mxGeometry x="80" y="40" width="120" height="60" as="geometry" />
        </mxCell>
        <mxCell id="HHs4ZkjuOHbLrmAk1FXv-4" style="edgeStyle=orthogonalEdgeStyle;rounded=0;orthogonalLoop=1;jettySize=auto;html=1;exitX=1;exitY=0.5;exitDx=0;exitDy=0;entryX=0;entryY=0.5;entryDx=0;entryDy=0;endArrow=none;endFill=0;" parent="1" source="mB3V-Ia4iw0I_bxSB3YC-17" target="HHs4ZkjuOHbLrmAk1FXv-1" edge="1">
          <mxGeometry relative="1" as="geometry" />
        </mxCell>
        <mxCell id="E6OrM8buI4dDUy_tafOZ-2" value="FACULTATE" style="rounded=0;whiteSpace=wrap;html=1;" parent="1" vertex="1">
          <mxGeometry x="80" y="210" width="120" height="60" as="geometry" />
        </mxCell>
        <mxCell id="E6OrM8buI4dDUy_tafOZ-6" value="are" style="text;strokeColor=none;align=center;fillColor=none;html=1;verticalAlign=middle;whiteSpace=wrap;rounded=0;" parent="1" vertex="1">
          <mxGeometry x="125" y="140" width="60" height="30" as="geometry" />
        </mxCell>
        <mxCell id="E6OrM8buI4dDUy_tafOZ-10" value="are" style="text;strokeColor=none;align=center;fillColor=none;html=1;verticalAlign=middle;whiteSpace=wrap;rounded=0;" parent="1" vertex="1">
          <mxGeometry x="125" y="311" width="60" height="30" as="geometry" />
        </mxCell>
        <mxCell id="E6OrM8buI4dDUy_tafOZ-14" style="edgeStyle=orthogonalEdgeStyle;rounded=0;orthogonalLoop=1;jettySize=auto;html=1;entryX=0.5;entryY=1;entryDx=0;entryDy=0;endArrow=none;endFill=0;" parent="1" source="E6OrM8buI4dDUy_tafOZ-11" target="E6OrM8buI4dDUy_tafOZ-2" edge="1">
          <mxGeometry relative="1" as="geometry" />
        </mxCell>
        <mxCell id="E6OrM8buI4dDUy_tafOZ-16" style="edgeStyle=orthogonalEdgeStyle;rounded=0;orthogonalLoop=1;jettySize=auto;html=1;entryX=0.5;entryY=0;entryDx=0;entryDy=0;endArrow=none;endFill=0;" parent="1" source="E6OrM8buI4dDUy_tafOZ-11" target="E6OrM8buI4dDUy_tafOZ-15" edge="1">
          <mxGeometry relative="1" as="geometry" />
        </mxCell>
        <mxCell id="E6OrM8buI4dDUy_tafOZ-11" value="SPECIALIZARE" style="rounded=0;whiteSpace=wrap;html=1;" parent="1" vertex="1">
          <mxGeometry x="80" y="384" width="120" height="60" as="geometry" />
        </mxCell>
        <mxCell id="HHs4ZkjuOHbLrmAk1FXv-14" style="rounded=0;orthogonalLoop=1;jettySize=auto;html=1;exitX=1;exitY=0.5;exitDx=0;exitDy=0;entryX=0;entryY=1;entryDx=0;entryDy=0;endArrow=none;endFill=0;" parent="1" source="mB3V-Ia4iw0I_bxSB3YC-28" target="HHs4ZkjuOHbLrmAk1FXv-12" edge="1">
          <mxGeometry relative="1" as="geometry" />
        </mxCell>
        <mxCell id="HHs4ZkjuOHbLrmAk1FXv-17" style="edgeStyle=orthogonalEdgeStyle;rounded=0;orthogonalLoop=1;jettySize=auto;html=1;entryX=0;entryY=0.5;entryDx=0;entryDy=0;endArrow=none;endFill=0;" parent="1" source="E6OrM8buI4dDUy_tafOZ-15" target="HHs4ZkjuOHbLrmAk1FXv-18" edge="1">
          <mxGeometry relative="1" as="geometry">
            <mxPoint x="640" y="680" as="targetPoint" />
          </mxGeometry>
        </mxCell>
        <mxCell id="E6OrM8buI4dDUy_tafOZ-15" value="STUDENT" style="rounded=0;whiteSpace=wrap;html=1;" parent="1" vertex="1">
          <mxGeometry x="82" y="651" width="120" height="60" as="geometry" />
        </mxCell>
        <mxCell id="HHs4ZkjuOHbLrmAk1FXv-8" style="edgeStyle=orthogonalEdgeStyle;rounded=0;orthogonalLoop=1;jettySize=auto;html=1;entryX=0;entryY=0.5;entryDx=0;entryDy=0;endArrow=none;endFill=0;" parent="1" source="HHs4ZkjuOHbLrmAk1FXv-1" target="HHs4ZkjuOHbLrmAk1FXv-2" edge="1">
          <mxGeometry relative="1" as="geometry" />
        </mxCell>
        <mxCell id="HHs4ZkjuOHbLrmAk1FXv-1" value="PERSOANĂ CONTACT" style="rounded=0;whiteSpace=wrap;html=1;" parent="1" vertex="1">
          <mxGeometry x="490" y="210" width="120" height="60" as="geometry" />
        </mxCell>
        <mxCell id="HHs4ZkjuOHbLrmAk1FXv-13" style="rounded=0;orthogonalLoop=1;jettySize=auto;html=1;exitX=0;exitY=1;exitDx=0;exitDy=0;entryX=1;entryY=0.5;entryDx=0;entryDy=0;endArrow=none;endFill=0;" parent="1" source="HHs4ZkjuOHbLrmAk1FXv-2" target="HHs4ZkjuOHbLrmAk1FXv-12" edge="1">
          <mxGeometry relative="1" as="geometry" />
        </mxCell>
        <mxCell id="HHs4ZkjuOHbLrmAk1FXv-19" style="edgeStyle=orthogonalEdgeStyle;rounded=0;orthogonalLoop=1;jettySize=auto;html=1;endArrow=none;endFill=0;" parent="1" source="HHs4ZkjuOHbLrmAk1FXv-2" target="HHs4ZkjuOHbLrmAk1FXv-18" edge="1">
          <mxGeometry relative="1" as="geometry" />
        </mxCell>
        <mxCell id="HHs4ZkjuOHbLrmAk1FXv-2" value="ANGAJATOR" style="rounded=0;whiteSpace=wrap;html=1;" parent="1" vertex="1">
          <mxGeometry x="780" y="209" width="120" height="60" as="geometry" />
        </mxCell>
        <mxCell id="HHs4ZkjuOHbLrmAk1FXv-9" value="reprezintă" style="text;html=1;align=center;verticalAlign=middle;resizable=0;points=[];autosize=1;strokeColor=none;fillColor=none;" parent="1" vertex="1">
          <mxGeometry x="650" y="209" width="80" height="30" as="geometry" />
        </mxCell>
        <mxCell id="HHs4ZkjuOHbLrmAk1FXv-16" style="edgeStyle=orthogonalEdgeStyle;rounded=0;orthogonalLoop=1;jettySize=auto;html=1;exitX=0.5;exitY=1;exitDx=0;exitDy=0;entryX=0.5;entryY=0;entryDx=0;entryDy=0;endArrow=none;endFill=0;" parent="1" target="HHs4ZkjuOHbLrmAk1FXv-15" edge="1">
          <mxGeometry relative="1" as="geometry">
            <mxPoint x="509" y="420" as="sourcePoint" />
          </mxGeometry>
        </mxCell>
        <mxCell id="HHs4ZkjuOHbLrmAk1FXv-12" value="INTERVIU" style="rounded=0;whiteSpace=wrap;html=1;" parent="1" vertex="1">
          <mxGeometry x="420" y="360" width="120" height="60" as="geometry" />
        </mxCell>
        <mxCell id="HHs4ZkjuOHbLrmAk1FXv-15" value="COMPETENȚE MINIME" style="rounded=0;whiteSpace=wrap;html=1;" parent="1" vertex="1">
          <mxGeometry x="449" y="600" width="120" height="60" as="geometry" />
        </mxCell>
        <mxCell id="HHs4ZkjuOHbLrmAk1FXv-20" style="edgeStyle=orthogonalEdgeStyle;rounded=0;orthogonalLoop=1;jettySize=auto;html=1;endArrow=none;endFill=0;entryX=0.5;entryY=0;entryDx=0;entryDy=0;" parent="1" source="mB3V-Ia4iw0I_bxSB3YC-1" target="HHs4ZkjuOHbLrmAk1FXv-21" edge="1">
          <mxGeometry relative="1" as="geometry">
            <mxPoint x="1040" y="616" as="targetPoint" />
          </mxGeometry>
        </mxCell>
        <mxCell id="HHs4ZkjuOHbLrmAk1FXv-18" value="STAGIU" style="rounded=0;whiteSpace=wrap;html=1;" parent="1" vertex="1">
          <mxGeometry x="780" y="651" width="120" height="60" as="geometry" />
        </mxCell>
        <mxCell id="HHs4ZkjuOHbLrmAk1FXv-21" value="COORDONATOR STAGIU" style="rounded=0;whiteSpace=wrap;html=1;" parent="1" vertex="1">
          <mxGeometry x="780" y="980" width="120" height="60" as="geometry" />
        </mxCell>
        <mxCell id="HHs4ZkjuOHbLrmAk1FXv-22" value="oferit de" style="text;html=1;align=center;verticalAlign=middle;resizable=0;points=[];autosize=1;strokeColor=none;fillColor=none;" parent="1" vertex="1">
          <mxGeometry x="830" y="431" width="70" height="30" as="geometry" />
        </mxCell>
        <mxCell id="HHs4ZkjuOHbLrmAk1FXv-29" value="urmează" style="text;html=1;align=center;verticalAlign=middle;resizable=0;points=[];autosize=1;strokeColor=none;fillColor=none;" parent="1" vertex="1">
          <mxGeometry x="454" y="681" width="70" height="30" as="geometry" />
        </mxCell>
        <mxCell id="HHs4ZkjuOHbLrmAk1FXv-38" value="planifică" style="text;html=1;align=center;verticalAlign=middle;resizable=0;points=[];autosize=1;strokeColor=none;fillColor=none;rotation=-25;" parent="1" vertex="1">
          <mxGeometry x="614" y="305" width="70" height="30" as="geometry" />
        </mxCell>
        <mxCell id="mB3V-Ia4iw0I_bxSB3YC-3" value="" style="edgeStyle=orthogonalEdgeStyle;rounded=0;orthogonalLoop=1;jettySize=auto;html=1;endArrow=none;endFill=0;entryX=0.5;entryY=0;entryDx=0;entryDy=0;" edge="1" parent="1" source="HHs4ZkjuOHbLrmAk1FXv-18" target="mB3V-Ia4iw0I_bxSB3YC-1">
          <mxGeometry relative="1" as="geometry">
            <mxPoint x="1190" y="680" as="targetPoint" />
            <mxPoint x="810" y="680" as="sourcePoint" />
          </mxGeometry>
        </mxCell>
        <mxCell id="mB3V-Ia4iw0I_bxSB3YC-1" value="COORDONARE_STAGIU" style="rounded=0;whiteSpace=wrap;html=1;dashed=1;dashPattern=8 8;" vertex="1" parent="1">
          <mxGeometry x="755" y="826" width="170" height="60" as="geometry" />
        </mxCell>
        <mxCell id="mB3V-Ia4iw0I_bxSB3YC-4" value="&lt;u&gt;&lt;font style=&quot;font-size: 14px;&quot;&gt;&lt;b&gt;X&lt;/b&gt;&lt;/font&gt;&lt;/u&gt;" style="text;html=1;align=center;verticalAlign=middle;resizable=0;points=[];autosize=1;strokeColor=none;fillColor=none;" vertex="1" parent="1">
          <mxGeometry x="825" y="800" width="30" height="30" as="geometry" />
        </mxCell>
        <mxCell id="mB3V-Ia4iw0I_bxSB3YC-5" value="&lt;u&gt;&lt;font style=&quot;font-size: 14px;&quot;&gt;&lt;b&gt;X&lt;/b&gt;&lt;/font&gt;&lt;/u&gt;" style="text;html=1;align=center;verticalAlign=middle;resizable=0;points=[];autosize=1;strokeColor=none;fillColor=none;" vertex="1" parent="1">
          <mxGeometry x="825" y="861" width="30" height="30" as="geometry" />
        </mxCell>
        <mxCell id="mB3V-Ia4iw0I_bxSB3YC-6" value="RELATIE_COMPETENTE_INTERVIU" style="rounded=0;whiteSpace=wrap;html=1;dashed=1;dashPattern=8 8;" vertex="1" parent="1">
          <mxGeometry x="409" y="490" width="215" height="60" as="geometry" />
        </mxCell>
        <mxCell id="mB3V-Ia4iw0I_bxSB3YC-7" value="&lt;u&gt;&lt;font style=&quot;font-size: 14px;&quot;&gt;&lt;b&gt;X&lt;/b&gt;&lt;/font&gt;&lt;/u&gt;" style="text;html=1;align=center;verticalAlign=middle;resizable=0;points=[];autosize=1;strokeColor=none;fillColor=none;" vertex="1" parent="1">
          <mxGeometry x="493" y="474" width="30" height="30" as="geometry" />
        </mxCell>
        <mxCell id="mB3V-Ia4iw0I_bxSB3YC-9" value="&lt;u&gt;&lt;font style=&quot;font-size: 14px;&quot;&gt;&lt;b&gt;X&lt;/b&gt;&lt;/font&gt;&lt;/u&gt;" style="text;html=1;align=center;verticalAlign=middle;resizable=0;points=[];autosize=1;strokeColor=none;fillColor=none;" vertex="1" parent="1">
          <mxGeometry x="493" y="534" width="30" height="30" as="geometry" />
        </mxCell>
        <mxCell id="mB3V-Ia4iw0I_bxSB3YC-10" value="&lt;font style=&quot;font-size: 14px;&quot;&gt;&lt;b style=&quot;&quot;&gt;X&lt;/b&gt;&lt;/font&gt;" style="text;html=1;align=center;verticalAlign=middle;resizable=0;points=[];autosize=1;strokeColor=none;fillColor=none;" vertex="1" parent="1">
          <mxGeometry x="186" y="665" width="30" height="30" as="geometry" />
        </mxCell>
        <mxCell id="mB3V-Ia4iw0I_bxSB3YC-11" value="&lt;font style=&quot;font-size: 14px;&quot;&gt;&lt;b style=&quot;&quot;&gt;X&lt;/b&gt;&lt;/font&gt;" style="text;html=1;align=center;verticalAlign=middle;resizable=0;points=[];autosize=1;strokeColor=none;fillColor=none;" vertex="1" parent="1">
          <mxGeometry x="825" y="636" width="30" height="30" as="geometry" />
        </mxCell>
        <mxCell id="mB3V-Ia4iw0I_bxSB3YC-12" value="&lt;font style=&quot;font-size: 14px;&quot;&gt;&lt;b style=&quot;&quot;&gt;X&lt;/b&gt;&lt;/font&gt;" style="text;html=1;align=center;verticalAlign=middle;resizable=0;points=[];autosize=1;strokeColor=none;fillColor=none;" vertex="1" parent="1">
          <mxGeometry x="125" y="196" width="30" height="30" as="geometry" />
        </mxCell>
        <mxCell id="mB3V-Ia4iw0I_bxSB3YC-13" value="&lt;font style=&quot;font-size: 14px;&quot;&gt;&lt;b style=&quot;&quot;&gt;X&lt;/b&gt;&lt;/font&gt;" style="text;html=1;align=center;verticalAlign=middle;resizable=0;points=[];autosize=1;strokeColor=none;fillColor=none;" vertex="1" parent="1">
          <mxGeometry x="125" y="368" width="30" height="30" as="geometry" />
        </mxCell>
        <mxCell id="mB3V-Ia4iw0I_bxSB3YC-15" value="&lt;font style=&quot;font-size: 14px;&quot;&gt;&lt;b style=&quot;&quot;&gt;X&lt;/b&gt;&lt;/font&gt;" style="text;html=1;align=center;verticalAlign=middle;resizable=0;points=[];autosize=1;strokeColor=none;fillColor=none;" vertex="1" parent="1">
          <mxGeometry x="594" y="225" width="30" height="30" as="geometry" />
        </mxCell>
        <mxCell id="mB3V-Ia4iw0I_bxSB3YC-16" value="&lt;font style=&quot;font-size: 14px;&quot;&gt;&lt;b style=&quot;&quot;&gt;X&lt;/b&gt;&lt;/font&gt;" style="text;html=1;align=center;verticalAlign=middle;resizable=0;points=[];autosize=1;strokeColor=none;fillColor=none;" vertex="1" parent="1">
          <mxGeometry x="524" y="375" width="30" height="30" as="geometry" />
        </mxCell>
        <mxCell id="mB3V-Ia4iw0I_bxSB3YC-18" value="" style="edgeStyle=orthogonalEdgeStyle;rounded=0;orthogonalLoop=1;jettySize=auto;html=1;exitX=1;exitY=0.5;exitDx=0;exitDy=0;entryX=0;entryY=0.5;entryDx=0;entryDy=0;endArrow=none;endFill=0;" edge="1" parent="1" source="E6OrM8buI4dDUy_tafOZ-2" target="mB3V-Ia4iw0I_bxSB3YC-17">
          <mxGeometry relative="1" as="geometry">
            <mxPoint x="200" y="240" as="sourcePoint" />
            <mxPoint x="420" y="241" as="targetPoint" />
          </mxGeometry>
        </mxCell>
        <mxCell id="mB3V-Ia4iw0I_bxSB3YC-17" value="CONTACTARE_FACULTATE" style="rounded=0;whiteSpace=wrap;html=1;dashed=1;dashPattern=8 8;" vertex="1" parent="1">
          <mxGeometry x="265" y="210" width="170" height="60" as="geometry" />
        </mxCell>
        <mxCell id="mB3V-Ia4iw0I_bxSB3YC-19" value="&lt;u&gt;&lt;font style=&quot;font-size: 14px;&quot;&gt;&lt;b&gt;X&lt;/b&gt;&lt;/font&gt;&lt;/u&gt;" style="text;html=1;align=center;verticalAlign=middle;resizable=0;points=[];autosize=1;strokeColor=none;fillColor=none;" vertex="1" parent="1">
          <mxGeometry x="420.84000000000003" y="224" width="30" height="30" as="geometry" />
        </mxCell>
        <mxCell id="mB3V-Ia4iw0I_bxSB3YC-20" value="&lt;u&gt;&lt;font style=&quot;font-size: 14px;&quot;&gt;&lt;b&gt;X&lt;/b&gt;&lt;/font&gt;&lt;/u&gt;" style="text;html=1;align=center;verticalAlign=middle;resizable=0;points=[];autosize=1;strokeColor=none;fillColor=none;" vertex="1" parent="1">
          <mxGeometry x="249.17000000000002" y="224" width="30" height="30" as="geometry" />
        </mxCell>
        <mxCell id="mB3V-Ia4iw0I_bxSB3YC-24" value="STUDIERE_SPECIALIZARE" style="rounded=0;whiteSpace=wrap;html=1;dashed=1;dashPattern=8 8;" vertex="1" parent="1">
          <mxGeometry x="62" y="515" width="160" height="60" as="geometry" />
        </mxCell>
        <mxCell id="mB3V-Ia4iw0I_bxSB3YC-26" value="&lt;u&gt;&lt;font style=&quot;font-size: 14px;&quot;&gt;&lt;b&gt;X&lt;/b&gt;&lt;/font&gt;&lt;/u&gt;" style="text;html=1;align=center;verticalAlign=middle;resizable=0;points=[];autosize=1;strokeColor=none;fillColor=none;" vertex="1" parent="1">
          <mxGeometry x="125" y="500" width="30" height="30" as="geometry" />
        </mxCell>
        <mxCell id="mB3V-Ia4iw0I_bxSB3YC-27" value="&lt;u&gt;&lt;font style=&quot;font-size: 14px;&quot;&gt;&lt;b&gt;X&lt;/b&gt;&lt;/font&gt;&lt;/u&gt;" style="text;html=1;align=center;verticalAlign=middle;resizable=0;points=[];autosize=1;strokeColor=none;fillColor=none;" vertex="1" parent="1">
          <mxGeometry x="127" y="560" width="30" height="30" as="geometry" />
        </mxCell>
        <mxCell id="mB3V-Ia4iw0I_bxSB3YC-29" value="" style="rounded=0;orthogonalLoop=1;jettySize=auto;html=1;exitX=1;exitY=0.5;exitDx=0;exitDy=0;entryX=0;entryY=1;entryDx=0;entryDy=0;endArrow=none;endFill=0;" edge="1" parent="1" source="E6OrM8buI4dDUy_tafOZ-15" target="mB3V-Ia4iw0I_bxSB3YC-28">
          <mxGeometry relative="1" as="geometry">
            <mxPoint x="202" y="681" as="sourcePoint" />
            <mxPoint x="420" y="420" as="targetPoint" />
          </mxGeometry>
        </mxCell>
        <mxCell id="mB3V-Ia4iw0I_bxSB3YC-28" value="SUSȚINERE INTERVIU" style="whiteSpace=wrap;html=1;dashed=1;dashPattern=8 8;" vertex="1" parent="1">
          <mxGeometry x="260" y="504" width="120" height="60" as="geometry" />
        </mxCell>
        <mxCell id="mB3V-Ia4iw0I_bxSB3YC-30" value="&lt;u&gt;&lt;font style=&quot;font-size: 14px;&quot;&gt;&lt;b&gt;X&lt;/b&gt;&lt;/font&gt;&lt;/u&gt;" style="text;html=1;align=center;verticalAlign=middle;resizable=0;points=[];autosize=1;strokeColor=none;fillColor=none;" vertex="1" parent="1">
          <mxGeometry x="365" y="518" width="30" height="30" as="geometry" />
        </mxCell>
        <mxCell id="mB3V-Ia4iw0I_bxSB3YC-31" value="&lt;u&gt;&lt;font style=&quot;font-size: 14px;&quot;&gt;&lt;b&gt;X&lt;/b&gt;&lt;/font&gt;&lt;/u&gt;" style="text;html=1;align=center;verticalAlign=middle;resizable=0;points=[];autosize=1;strokeColor=none;fillColor=none;" vertex="1" parent="1">
          <mxGeometry x="245" y="548" width="30" height="30" as="geometry" />
        </mxCell>
      </root>
    </mxGraphModel>
  </diagram>
</mxfile>
